<?xml version="1.0" encoding="UTF-8"?><svg id="_레이어_2" xmlns="http://www.w3.org/2000/svg" viewBox="0 0 927.15 117.57"><g id="_레이어_1-2"><g><path d="M9.95,110.96l-1.69,1.09C2.75,100.83,0,88.51,0,75.08c0-11.42,1.68-21.76,5.04-31.03,3.36-9.27,7.97-17.63,13.84-25.09C24.75,11.51,31.64,5.19,39.56,0l1.21,1.51C28.95,11.32,20.02,23.34,13.99,37.57c-6.03,14.23-9.05,28.87-9.05,43.9,0,4.86,.52,10.24,1.57,16.13,1.05,5.89,2.19,10.34,3.44,13.36Z" style="fill:#00386c;"/><path d="M27.16,79.51c0-20.26,17.91-52.12,41.87-52.12,3.21,0,8.15,1.23,10.62,3.58,3.34,2.96-2.1,7.41-6.42,7.41-5.31,0-4.57-5.31-12.6-5.31-11.61,0-23.1,27.05-23.1,42.24,0,7.41,2.47,10.99,7.78,10.99,9.63,0,15.93-10.25,18.16-12.97,1.11-1.48,3.09-.49,2.22,1.24-1.48,2.96-10.75,20.13-25.94,20.13-8.28,0-12.6-5.19-12.6-15.19Z" style="fill:#00386c;"/><path d="M76.93,61.97c4.57-19.52,19.52-34.58,32.11-34.58s17.66,16.92,14.08,32.86c-4.69,19.52-19.64,34.58-32.24,34.58-9.26,0-19.27-9.51-13.96-32.86Zm30.76,11.73c7.91-15.93,13.46-42.74,2.22-42.74-4.82,0-13.71,10-19.89,22.85-7.29,15.07-9.63,37.18-.25,37.43,4.57,.12,13.34-8.03,17.91-17.54Z" style="fill:#00386c;"/><path d="M131.15,61.97c4.57-19.52,19.52-34.58,32.11-34.58s17.66,16.92,14.08,32.86c-4.69,19.52-19.64,34.58-32.24,34.58-9.26,0-19.27-9.51-13.96-32.86Zm30.76,11.73c7.91-15.93,13.46-42.74,2.22-42.74-4.82,0-13.71,10-19.89,22.85-7.29,15.07-9.63,37.18-.25,37.43,4.57,.12,13.34-8.03,17.91-17.54Z" style="fill:#00386c;"/><path d="M163.38,114.84c7.53-.62,10.99-3.58,13.59-9.76,8.28-22.11,15.44-42.61,22.23-62.25,1.73-5.06-1.61-3.09-7.16,.25-5.31,3.34-5.56,.12-1.98-2.59,3.09-2.35,6.42-4.2,9.76-5.93,1.61-.87,2.72-1.85,5.93-10.5,1.73-4.57,13.34-11.86,10-4.57-.25,.62-1.36,3.33-2.22,5.81-1.11,2.72,.62,3.95,3.95,3.21,3.46-.62,6.42-.99,8.89-.99,11.12,0,19.39,10.25,12.48,30.76-7.66,22.85-25.57,36.56-35.08,36.56-5.93,0-7.29-3.09-9.14-5.31-1.85-2.35-2.72-1.23-3.58,1.24l-4.69,14.08c-1.73,5.56,2.22,9.39,10.87,10,3.46,.25,1.98,2.97-.86,2.72-4.82-.37-14.08-.87-19.27-.87-5.93,0-9.51,.87-14.45,.87-3.21,0-3.09-2.35,.74-2.72Zm41.13-23.96c5.81,0,17.91-10.5,23.84-27.92,5.93-17.66,.99-29.52-8.52-29.15-1.85,.12-4.45,.25-7.29,.74-1.98,.37-3.21,1.48-3.95,3.33-2.47,7.41-4.82,14.58-7.41,22.98l-3.71,11.36c-3.83,11.49-.49,18.65,7.04,18.65Z" style="fill:#00386c;"/><path d="M245.89,63.95c7.29-22.85,24.46-36.56,38.04-36.56,16.8,0,19.27,20.5,.99,25.07l-25.44,6.3c-2.47,.62-4.2,2.22-4.69,4.82-3.58,15.07,1.61,23.84,11.36,23.72,8.03-.12,13.34-5.68,17.05-11.36,2.47-3.95,4.32-2.22,1.85,1.61-7.04,11.24-16.18,17.17-23.1,17.17-15.07,0-22.36-10.99-16.06-30.76Zm29.4-13.09c6.92-2.59,10.75-8.15,10.99-13.09,.37-4.82-2.72-6.42-5.81-6.42-7.16,0-14.57,6.05-19.39,15.32-4.2,9.02,4.32,7.78,14.2,4.2Z" style="fill:#00386c;"/><path d="M300.1,84.45c14.57-36.19,16.18-41.5,15.93-43.97-.25-1.98-1.98-2.72-3.09-2.72-4.08,0-12.1,9.02-15.19,12.48-.99,1.24-2.35,.62-1.61-.99,2.35-5.06,15.19-21.25,24.21-21.25,4.57,0,7.29,4.45,3.83,15.19-1.98,5.68-4.08,12.1-6.3,19.02-.49,1.48,.99,2.84,1.61,1.48,8.52-16.43,22.6-36.81,31.87-36.81,3.83,0,7.29,2.35,7.91,7.78,.74,7.04-4.94,11.36-7.53,11.36s-1.36-8.28-5.93-8.28c-13.59,0-27.92,33.97-38.04,51.01-1.36,2.22-2.22,4.08-4.57,5.19-3.83,1.85-7.04,.25-3.09-9.51Z" style="fill:#00386c;"/><path d="M342.84,85.32c0-18.16,31.62-49.16,50.77-52.5,4.69-.86,6.18-2.22,9.76-4.69,4.45-3.09,7.66-1.11,7.66,1.61,0,1.85-2.1,6.79-18.4,49.78-1.24,3.34-.62,6.55,2.1,6.55,3.58,0,8.77-5.81,12.72-10.87,.86-1.11,2.72-.49,1.73,1.24-3.58,6.18-14.45,18.16-21.86,18.16-4.69,0-7.91-4.82-2.72-15.93,.74-1.48,2.35-4.94,3.09-6.55,1.24-2.72-.49-4.2-2.72-1.61-2.72,2.96-8.15,8.52-12.6,12.6-9.02,8.28-15.56,11.49-20.38,11.49s-9.14-3.34-9.14-9.26Zm14.95,.74c15.44,0,40.89-35.94,40.89-44.84,0-2.35-2.35-4.69-5.81-4.69-19.76,0-39.53,32.49-39.53,44.22,0,3.09,1.85,5.31,4.45,5.31Z" style="fill:#00386c;"/><path d="M418.42,80.25c3.09-8.77,14.2-39.53,14.95-42.12,.86-3.09-1.11-4.2-8.28-3.71-3.21,.25-3.33-2.84-.12-3.46,11.49-2.35,14.45-5.06,19.76-17.91,1.48-3.46,3.83-3.46,2.96-.37l-3.21,11.49c-.86,2.97,.99,5.06,3.21,5.06h14.2c2.96,0-2.22,5.31-5.31,5.31h-9.88c-2.47,0-3.46,1.48-4.32,3.71-.86,2.22-10.75,30.14-14.08,40.02-.49,1.36-2.84,6.55,2.59,6.55,3.95,0,11.86-9.02,14.08-12.48,.99-1.36,3.58-1.61,2.47,.99-2.1,4.82-14.57,21.37-23.47,21.37-4.57,0-8.89-4.69-5.56-14.45Z" style="fill:#00386c;"/><path d="M456.96,79.39c4.94-10.38,10.87-22.73,16.8-36.93,2.96-7.16-4.94-3.95-10.75,.74-4.45,3.46-5.31,.62-1.85-2.59,7.16-6.67,14.7-10,19.27-11.98,4.2-1.85,7.91-.25,3.21,9.76-16.55,35.94-17.66,41.26-17.79,43.73,0,1.98,1.48,2.72,2.59,2.72,4.08,0,12.35-9.02,15.93-12.48,1.11-1.24,2.47-.62,1.48,.99-3.09,5.06-18.16,21.25-27.17,21.25-4.57,0-6.67-4.45-1.73-15.19ZM488.21,6.39c3.71,0,6.67,2.96,6.67,6.67s-2.97,6.79-6.67,6.79-6.79-2.96-6.79-6.79,2.96-6.67,6.79-6.67Z" style="fill:#00386c;"/><path d="M492.65,83.96c0-10.5,15.44-34.83,15.44-43.48,0-5.31-4.57-1.85-10.25,2.72-4.32,3.46-5.31,.62-1.98-2.59,6.92-6.67,14.33-10,18.9-11.98,3.71-1.61,5.56-.25,5.56,2.72,0,7.16-18.28,42.24-18.28,50.15,0,2.96,2.22,5.19,6.67,5.19,14.7,0,33.72-23.96,33.72-33.72,0-11.73-6.67-12.35-6.67-19.27,0-3.58,1.73-6.18,4.2-6.18,3.95,0,6.55,6.18,6.55,17.79,0,24.58-26.06,49.41-41.62,49.41-7.91,0-12.23-3.83-12.23-10.75Z" style="fill:#00386c;"/><path d="M551.56,63.95c7.29-22.85,24.46-36.56,38.04-36.56,16.8,0,19.27,20.5,.99,25.07l-25.44,6.3c-2.47,.62-4.2,2.22-4.69,4.82-3.58,15.07,1.61,23.84,11.36,23.72,8.03-.12,13.34-5.68,17.04-11.36,2.47-3.95,4.32-2.22,1.85,1.61-7.04,11.24-16.18,17.17-23.1,17.17-15.07,0-22.36-10.99-16.06-30.76Zm29.4-13.09c6.92-2.59,10.75-8.15,10.99-13.09,.37-4.82-2.72-6.42-5.8-6.42-7.16,0-14.58,6.05-19.39,15.32-4.2,9.02,4.32,7.78,14.2,4.2Z" style="fill:#00386c;"/><path d="M619.27,1.09l1.69-1.09c5.51,11.22,8.26,23.54,8.26,36.97,0,16.28-3.63,30.95-10.89,43.99s-16.82,23.41-28.68,31.09l-1.21-1.51c11.86-9.81,20.8-21.83,26.81-36.06,6.01-14.23,9.02-28.87,9.02-43.9,0-4.86-.52-10.24-1.57-16.13-1.05-5.89-2.19-10.34-3.44-13.36Z" style="fill:#00386c;"/><path d="M697.33,90.13c7.29-.74,10.5-3.46,12.48-10,1.48-4.69,4.08-14.58,7.78-29.52,3.21-12.72,6.92-28.29,7.53-31.5,1.23-6.55-.74-9.26-7.53-10-3.71-.37-2.96-2.72,.62-2.72,5.06,0,9.39,.86,14.33,.86s9.63-.86,15.07-.86c12.6,.12,23.96,6.67,20.38,21-2.72,10.62-14.58,16.43-22.23,18.53-1.98,.49-2.1,1.24-.62,1.61,10.13,2.47,20.01,10.62,16.67,23.72-3.58,14.33-17.04,21.62-31.62,21.62-7.16,0-12.72-.86-18.9-.86-4.94,0-9.51,.86-14.58,.86-3.58,0-3.34-2.35,.62-2.72Zm33.72,.49c11.86,0,19.15-11.49,21.12-19.39,3.58-13.96-1.73-22.36-21.12-22.85-2.84,0-4.69,1.48-5.43,4.32-2.1,8.77-5.56,23.34-6.42,27.54-1.85,8.77,3.34,10.38,11.86,10.38Zm.74-45.33c13.83-.12,22.97-2.59,26.8-17.91,2.84-11.24-2.1-17.79-12.85-17.91-5.81,0-9.64,3.58-11.24,9.51-1.24,4.57-3.71,13.59-5.81,21.86-.86,2.96,.25,4.45,3.09,4.45Z" style="fill:#00386c;"/><path d="M771.19,79.39c4.57-10.38,16.18-45.33,21.62-59.54,2.72-7.16-5.06-3.95-10.75,.74-4.32,3.46-5.31,.62-1.98-2.59,6.92-6.67,14.33-10,18.9-11.98,4.08-1.85,7.66-.25,3.58,9.76-14.7,36.07-23.47,63.86-23.47,66.33,0,1.98,1.61,2.72,2.72,2.72,4.08,0,13.09-9.02,16.55-12.48,1.11-1.24,2.47-.62,1.48,.99-2.84,5.06-17.42,21.25-26.43,21.25-4.57,0-6.79-4.45-2.22-15.19Z" style="fill:#00386c;"/><path d="M805.77,79.39c4.2-10.38,9.76-22.73,14.7-36.93,2.47-7.16-5.19-3.95-10.75,.74-4.2,3.46-5.31,.62-2.1-2.59,6.67-6.67,13.96-10,18.53-11.98,3.95-1.85,10.01-.12,5.56,9.76-16.18,35.94-18.03,41.26-17.91,43.73,0,1.98,1.73,2.72,2.84,2.72,9.39,0,33.84-33.97,41.75-50.64,1.36-2.59,2.22-4.45,4.69-5.56,3.95-1.85,7.04-.25,3.09,9.76-14.08,35.94-17.17,41.26-17.04,43.73,0,1.98,1.73,2.72,2.84,2.72,4.08,0,13.83-9.02,17.17-12.48,1.11-1.24,2.47-.62,1.48,.99-2.59,5.06-17.79,21.25-26.8,21.25-4.57,0-6.92-4.45-2.59-15.07,2.35-5.81,5.93-12.23,8.65-19.14,.49-1.48-.49-2.47-1.85-1.48-3.83,3.21-8.03,8.52-9.26,10.13-5.56,7.29-21.24,25.57-30.26,25.57-4.57,0-6.92-4.45-2.72-15.19Z" style="fill:#00386c;"/><path d="M875.43,63.95c7.29-22.85,24.46-36.56,38.04-36.56,16.8,0,19.27,20.5,.99,25.07l-25.45,6.3c-2.47,.62-4.2,2.22-4.69,4.82-3.58,15.07,1.61,23.84,11.36,23.72,8.03-.12,13.34-5.68,17.04-11.36,2.47-3.95,4.32-2.22,1.85,1.61-7.04,11.24-16.18,17.17-23.1,17.17-15.07,0-22.36-10.99-16.06-30.76Zm29.4-13.09c6.92-2.59,10.75-8.15,10.99-13.09,.37-4.82-2.72-6.42-5.81-6.42-7.16,0-14.57,6.05-19.39,15.32-4.2,9.02,4.32,7.78,14.2,4.2Z" style="fill:#00386c;"/></g></g></svg>